<svg xmlns="http://www.w3.org/2000/svg" width="76" height="57.76" viewBox="0 0 76 57.76"><g id="fecha-limite" transform="translate(-7 -13)"><path id="Trazado_9403" data-name="Trazado 9403" d="M37.854,40.04H14.52a1.52,1.52,0,0,1,0-3.04H37.854a1.52,1.52,0,1,1,0,3.04Z" transform="translate(3.12 12.48)" fill="#fff"></path><path id="Trazado_9404" data-name="Trazado 9404" d="M37.854,28.04H14.52a1.52,1.52,0,0,1,0-3.04H37.854a1.52,1.52,0,1,1,0,3.04Z" transform="translate(3.12 6.24)" fill="#fff"></path><path id="Trazado_9405" data-name="Trazado 9405" d="M38.92,34.04H8.52a1.52,1.52,0,0,1,0-3.04h30.4a1.52,1.52,0,0,1,0,3.04Z" transform="translate(0 9.36)" fill="#fff"></path><path id="Trazado_9406" data-name="Trazado 9406" d="M40.08,39.96a5.933,5.933,0,1,1,0-11.862,5.933,5.933,0,1,1,0,11.862Zm0-8.822a2.895,2.895,0,1,0,0,5.782,2.895,2.895,0,1,0,0-5.782Z" transform="translate(14.04 7.851)" fill="#fff"></path><path id="Trazado_9407" data-name="Trazado 9407" d="M40.641,34.861a1.52,1.52,0,0,1-1.075-2.595l8.6-8.6a1.52,1.52,0,1,1,2.149,2.149l-8.6,8.6A1.516,1.516,0,0,1,40.641,34.861Z" transform="translate(16.703 5.315)" fill="#fff"></path><path id="Trazado_9408" data-name="Trazado 9408" d="M34.985,38.312a1.52,1.52,0,0,1-1.075-2.595l2.149-2.151a1.52,1.52,0,0,1,2.149,2.149L36.06,37.867A1.516,1.516,0,0,1,34.985,38.312Z" transform="translate(13.762 10.463)" fill="#fff"></path><path id="Trazado_9409" data-name="Trazado 9409" d="M38.52,53.6A1.52,1.52,0,0,1,37,52.08V47.52a1.52,1.52,0,1,1,3.04,0v4.56A1.52,1.52,0,0,1,38.52,53.6Z" transform="translate(15.6 17.16)" fill="#fff"></path><path id="Trazado_9410" data-name="Trazado 9410" d="M52.351,47.872a1.516,1.516,0,0,1-1.075-.445L48.052,44.2A1.52,1.52,0,0,1,50.2,42.051l3.224,3.225a1.52,1.52,0,0,1-1.075,2.595Z" transform="translate(21.116 14.875)" fill="#fff"></path><path id="Trazado_9411" data-name="Trazado 9411" d="M49.126,24.538a1.52,1.52,0,0,1-1.075-2.595l3.224-3.225a1.52,1.52,0,0,1,2.149,2.149L50.2,24.092A1.516,1.516,0,0,1,49.126,24.538Z" transform="translate(21.115 2.741)" fill="#fff"></path><path id="Trazado_9412" data-name="Trazado 9412" d="M38.52,20.6A1.52,1.52,0,0,1,37,19.08V14.52a1.52,1.52,0,0,1,3.04,0v4.56A1.52,1.52,0,0,1,38.52,20.6Z" transform="translate(15.6)" fill="#fff"></path><path id="Trazado_9413" data-name="Trazado 9413" d="M58.08,34.04H53.52a1.52,1.52,0,0,1,0-3.04h4.56a1.52,1.52,0,1,1,0,3.04Z" transform="translate(23.4 9.36)" fill="#fff"></path><path id="Trazado_9414" data-name="Trazado 9414" d="M36.919,22.04H20.52a1.52,1.52,0,1,1,0-3.04h16.4a1.52,1.52,0,1,1,0,3.04Z" transform="translate(6.24 3.12)" fill="#fff"></path><path id="Trazado_9415" data-name="Trazado 9415" d="M36.919,46.04H20.52a1.52,1.52,0,1,1,0-3.04h16.4a1.52,1.52,0,1,1,0,3.04Z" transform="translate(6.24 15.6)" fill="#fff"></path><path id="Trazado_9416" data-name="Trazado 9416" d="M42.714,70.718a28.613,28.613,0,0,1-13.136-3.18,1.52,1.52,0,0,1,1.392-2.7A25.842,25.842,0,0,0,58.06,21,26.08,26.08,0,0,0,30.97,18.9a1.52,1.52,0,0,1-1.392-2.7A28.873,28.873,0,1,1,42.714,70.718Z" transform="translate(11.312 0.013)" fill="#fff"></path></g></svg>