<svg xmlns="http://www.w3.org/2000/svg" width="61.053" height="69.298" viewBox="0 0 61.053 69.298"><g id="ahorrar-dinero" transform="translate(-0.36)"><path id="Trazado_9417" data-name="Trazado 9417" d="M190.987,163.933a1.083,1.083,0,0,0-.39-.013,2.584,2.584,0,0,1-2.286-2.563,1.137,1.137,0,1,0-2.273,0,4.863,4.863,0,0,0,3.575,4.682v1.137a1.137,1.137,0,1,0,2.273,0v-1.068a4.854,4.854,0,0,0-.995-9.6,2.581,2.581,0,1,1,2.581-2.581,1.137,1.137,0,1,0,2.273,0,4.863,4.863,0,0,0-3.86-4.752v-1.035a1.137,1.137,0,1,0-2.273,0v1.1a4.854,4.854,0,0,0,1.279,9.536,2.579,2.579,0,0,1,.094,5.157Zm0,0" transform="translate(-159.296 -126.113)" fill="#fff"></path><path id="Trazado_9418" data-name="Trazado 9418" d="M104.2,122.975a16.483,16.483,0,1,0,16.483-16.483A16.483,16.483,0,0,0,104.2,122.975Zm16.483-14.21a14.21,14.21,0,1,1-14.21,14.21A14.209,14.209,0,0,1,120.678,108.766Zm0,0" transform="translate(-89.082 -91.361)" fill="#fff"></path><path id="Trazado_9419" data-name="Trazado 9419" d="M53.684,330.885l-8.9,4.207a7.252,7.252,0,0,0-6.183-3.815l-8.22-.226a8.681,8.681,0,0,1-3.736-.965l-.836-.433a14.753,14.753,0,0,0-13.665.014l.052-1.895a1.137,1.137,0,0,0-1.105-1.168l-9.014-.248a1.136,1.136,0,0,0-1.167,1.105l-.544,19.78a1.137,1.137,0,0,0,1.105,1.168l9.014.248h.031a1.137,1.137,0,0,0,1.137-1.106l.026-.946,2.342-1.254a4.016,4.016,0,0,1,3-.328L31,348.949c.024.007.049.013.074.018a14.97,14.97,0,0,0,3.073.317,15.165,15.165,0,0,0,6.336-1.383,1.057,1.057,0,0,0,.141-.078l20.275-13.114a1.137,1.137,0,0,0,.372-1.514A5.742,5.742,0,0,0,53.684,330.885ZM2.665,346.168l.482-17.508,6.741.185-.482,17.508Zm36.79-.3a12.888,12.888,0,0,1-7.881.88l-13.946-3.915a6.285,6.285,0,0,0-4.686.512l-1.2.641.32-11.641a12.5,12.5,0,0,1,12.693-.677l.836.433a10.979,10.979,0,0,0,4.719,1.219l8.22.226a4.986,4.986,0,0,1,4.738,3.973l-12.244-.338a1.137,1.137,0,1,0-.063,2.273l13.513.372h.032a1.137,1.137,0,0,0,1.136-1.106,7.214,7.214,0,0,0-.11-1.475l9.133-4.315.027-.013a3.473,3.473,0,0,1,3.927.55Zm0,0" transform="translate(0 -279.985)" fill="#fff"></path><path id="Trazado_9420" data-name="Trazado 9420" d="M214.477,11.935V1.137a1.137,1.137,0,1,0-2.273,0v10.8a1.137,1.137,0,1,0,2.273,0Zm0,0" transform="translate(-181.743)" fill="#fff"></path><path id="Trazado_9421" data-name="Trazado 9421" d="M274.477,46.252V41.137a1.137,1.137,0,1,0-2.273,0v5.115a1.137,1.137,0,1,0,2.273,0Zm0,0" transform="translate(-233.218 -34.317)" fill="#fff"></path><path id="Trazado_9422" data-name="Trazado 9422" d="M154.477,46.252V41.137a1.137,1.137,0,1,0-2.273,0v5.115a1.137,1.137,0,1,0,2.273,0Zm0,0" transform="translate(-130.268 -34.317)" fill="#fff"></path></g></svg>